<?xml version="1.0" encoding="UTF-8"?>
<svg width="1200pt" height="1200pt" version="1.1" viewBox="0 0 1200 1200" xmlns="http://www.w3.org/2000/svg">
 <g fill="#661b1c" fill-rule="evenodd">
  <path d="m694.46 673.21c0 2.1211 0.54297 6.0234 2.043 9.6289 1.9883 4.7695 4.6523 6.9023 9.7656 6.9023 5.1133 0 7.7773-2.1328 9.7656-6.9023 1.5-3.6055 2.043-7.5078 2.043-9.6289v-9.4453c0-6.5234 5.2852-11.809 11.809-11.809 6.5195 0 11.809 5.2852 11.809 11.809v9.4453c0 4.9648-0.93359 11.688-3.8633 18.711-5.3906 12.938-16.012 21.434-31.562 21.434-15.551 0-26.172-8.4961-31.562-21.434-2.9258-7.0234-3.8594-13.746-3.8594-18.711v-9.4453c0-6.5234 5.2852-11.809 11.805-11.809 6.5234 0 11.809 5.2852 11.809 11.809zm-212.54 0c0 2.1211 0.54297 6.0234 2.043 9.6289 1.9883 4.7695 4.6523 6.9023 9.7656 6.9023 5.1094 0 7.7734-2.1328 9.7617-6.9023 1.5039-3.6055 2.0469-7.5078 2.0469-9.6289v-9.4453c0-6.5234 5.2852-11.809 11.805-11.809 6.5234 0 11.809 5.2852 11.809 11.809v9.4453c0 4.9648-0.93359 11.688-3.8594 18.711-5.3906 12.938-16.012 21.434-31.562 21.434-15.555 0-26.172-8.4961-31.566-21.434-2.9258-7.0234-3.8594-13.746-3.8594-18.711v-9.4453c0-6.5234 5.2891-11.809 11.809-11.809s11.809 5.2852 11.809 11.809zm80.875 157.38c1.1328-1.8242 3.9961-5.1875 8.543-8.6562 7.707-5.8789 17.145-9.3867 28.66-9.3867 11.52 0 20.957 3.5078 28.664 9.3867 4.5469 3.4688 7.4102 6.832 8.543 8.6562 3.4414 5.5391 10.723 7.2344 16.262 3.793 5.5391-3.4453 7.2344-10.723 3.793-16.262-2.5391-4.082-7.2148-9.5742-14.277-14.965-11.641-8.8789-26.02-14.227-42.984-14.227-16.961 0-31.34 5.3477-42.984 14.227-7.0586 5.3906-11.738 10.883-14.273 14.965-3.4453 5.5391-1.7461 12.816 3.793 16.262 5.5391 3.4414 12.82 1.7461 16.262-3.793z"/>
  <path d="m752.16 418.94c35.668-2.375 67.539-18.887 95.41-45.164 12.582-11.859 23.523-24.957 32.812-38.344 5.6016-8.0781 17.531-29.934 17.531-29.934s-22.305-8.8477-31.121-11.648c-27.414-8.7031-56.578-14.715-84.945-15.672-23.266-0.78516-44.504 1.9727-63.09 8.9766-57.629 21.719-109.18 101.25-117.84 150.36l-4.5625 25.871 22.379-13.762c31.145-19.152 59.484-25.754 133.42-30.684zm-25.074-109.69c15.379-5.793 33.594-8.1602 53.965-7.4727 25.898 0.875 55.227 6.707 82.723 16.07-5.8516 9.1367-21.109 28.098-32.402 38.742-24.199 22.809-51.23 36.816-80.781 38.785-58.371 3.8906-90.746 9.043-118.19 20.594 11.672-25.746 46.027-88.379 94.688-106.72z"/>
  <path d="m587.73 415.17c2.9219 30.543 3.4375 63.043 2.5625 92.18-0.13672 4.5-0.26953 7.707-0.35938 9.3828-0.33984 6.5117 4.6641 12.066 11.176 12.406 6.5117 0.33984 12.066-4.6641 12.41-11.176 0.09375-1.8438 0.23828-5.2227 0.37891-9.9062 0.90234-30.035 0.37109-63.445-2.6562-95.133-4.6133-48.223-14.105-83.242-31.254-101.12-4.5117-4.707-11.988-4.8633-16.695-0.35156-4.7031 4.5156-4.8594 11.992-0.34766 16.695 12.199 12.719 20.672 43.973 24.785 87.023z"/>
  <path d="m305.51 710.79c0-123.98 97.594-224.36 217.81-224.36 25.012 0 49.43 4.3398 72.508 12.73 2.6055 0.94531 5.4609 0.94531 8.0703 0 23.078-8.3906 47.496-12.73 72.504-12.73 120.22 0 217.81 100.38 217.81 224.36 0 123.98-97.594 224.35-217.81 224.35-25.008 0-49.426-4.3359-72.504-12.727-2.6094-0.94922-5.4648-0.94922-8.0703 0-23.078 8.3906-47.496 12.727-72.508 12.727-120.22 0-217.81-100.38-217.81-224.35zm294.2 235.19c24.508 8.4297 50.32 12.781 76.699 12.781 133.41 0 241.43-111.09 241.43-247.97 0-136.88-108.02-247.97-241.43-247.97-27.773 0-50.621 4.3125-76.684 12.672-24.418-8.3594-50.129-12.672-76.398-12.672-133.41 0-241.43 111.09-241.43 247.97 0 136.88 108.02 247.97 241.43 247.97 27.773 0 58.883-6.2969 76.383-12.781z"/>
 </g>
</svg>
