<?xml version="1.0" encoding="UTF-8"?>
<svg width="1200pt" height="1200pt" version="1.1" viewBox="0 0 1200 1200" xmlns="http://www.w3.org/2000/svg">
 <path d="m407.21 187.39c176.58-39.641 353.15 68.469 392.79 245.05 18.02 82.883 3.6055 165.77-36.035 234.23l263.06 241.44c28.828 21.621 28.828 64.863 3.6055 93.695-25.227 25.227-64.863 28.828-93.695 3.6055l-263.06-237.84c-36.035 25.227-75.676 46.848-122.52 57.656-176.58 39.641-353.15-72.07-392.79-248.65s72.07-349.55 248.65-389.19zm18.02 79.277c-129.73 32.434-212.61 162.16-183.79 291.89 28.828 133.33 158.56 212.61 291.89 183.79 129.73-28.828 212.61-158.56 183.79-291.89-28.828-129.73-158.56-212.61-291.89-183.79z" fill="#fff"/>
</svg>
