<?xml version="1.0" encoding="UTF-8"?>
<svg width="1200pt" height="1200pt" version="1.1" viewBox="0 0 1200 1200" xmlns="http://www.w3.org/2000/svg">
 <path d="m840 1031.3c-11.25 0-22.5-3.75-31.875-9.375l-208.13-127.5-208.13 127.5c-20.625 13.125-46.875 11.25-67.5-1.875-20.625-15-30-39.375-24.375-63.75l56.25-238.13-185.63-159.37c-18.75-16.875-26.25-41.25-18.75-65.625s28.125-39.375 52.5-41.25l245.63-20.625 93.75-225c9.375-22.5 31.875-37.5 56.25-37.5s46.875 15 56.25 37.5l93.75 225 243.74 20.625c24.375 1.875 45 18.75 52.5 41.25 7.5 24.375 0 48.75-18.75 65.625l-183.74 159.37 56.25 238.13c5.625 24.375-3.75 48.75-24.375 63.75-9.375 7.5-22.5 11.25-35.625 11.25z" fill="#fff"/>
</svg>
