<?xml version="1.0" encoding="UTF-8"?>
<svg width="1200pt" height="1200pt" version="1.1" viewBox="0 0 1200 1200" xmlns="http://www.w3.org/2000/svg">
 <path d="m596.4 333.6c-232.8 0-370.8 105.6-370.8 283.2 0 195.6 166.8 354 370.8 354s370.8-159.6 370.8-354c1.1992-177.6-138-283.2-370.8-283.2zm158.4 44.398c-4.8008 4.8008-9.6016 9.6016-15.602 12-9.6016 4.8008-20.398 7.1992-31.199 7.1992s-21.602-3.6016-31.199-7.1992c-4.8008-2.3984-9.6016-4.8008-14.398-7.1992-3.6016-2.3984-7.1992-3.6016-9.6016-6 3.6016-4.8008 7.1992-10.801 9.6016-15.602 33.598 2.4023 64.797 8.4023 92.398 16.801zm-68.402 25.199c-7.1992 2.3984-14.398 4.8008-21.602 8.3984-4.8008 2.3984-9.6016 4.8008-14.398 8.3984l-7.1992 4.8008-2.3984 1.1992c-13.199-7.1992-28.801-12-44.398-12-16.801 0-32.398 4.8008-46.801 12l-2.3984-1.1992-7.1992-4.8008c-4.8008-2.3984-8.3984-6-14.398-8.3984-6-2.3984-12-4.8008-18-7.1992 6 0 10.801-1.1992 16.801-1.1992 7.1992-1.1992 13.199-2.3984 19.199-3.6016 3.6016-1.1992 6-2.3984 9.6016-3.6016l4.8008-2.3984h1.1992c9.6016 7.1992 20.398 13.199 33.602 14.398 18 2.3984 36-4.8008 46.801-16.801 1.1992-1.1992 1.1992-1.1992 2.3984-2.3984 4.8008 2.3984 8.3984 3.6016 13.199 6 6 2.3984 10.801 3.6016 16.801 6 5.9922 0.003906 9.5938 1.2031 14.391 2.4023zm-90-45.598c20.398 0 39.602 1.1992 58.801 2.3984-6 8.3984-13.199 16.801-20.398 22.801-12 9.6016-25.199 13.199-38.398 10.801-13.199-2.3984-25.199-10.801-37.199-19.199-6-4.8008-12-9.6016-16.801-14.398 16.797-2.4023 34.797-2.4023 53.996-2.4023zm-66 2.3984c1.1992 2.3984 2.3984 3.6016 3.6016 6 4.8008 6 9.6016 10.801 14.398 15.602l-7.1992 2.3984c-6 1.1992-12 3.6016-18 6-12 3.6016-24 6-37.199 4.8008-12 0-25.199-2.3984-37.199-7.1992-6-2.3984-12-4.8008-18-8.3984 30-8.4023 63.598-15.602 99.598-19.203zm66 586.8c-190.8 0-346.8-148.8-346.8-330 0-114 64.801-195.6 177.6-234 6 4.8008 13.199 8.3984 20.398 12 2.3984 1.1992 4.8008 2.3984 7.1992 3.6016-8.3984 0-16.801 1.1992-25.199 3.6016-21.602 4.8008-40.801 13.199-58.801 25.199s-33.602 26.398-46.801 42l2.3984 1.1992c14.398-15.602 30-28.801 48-38.398 18-10.801 37.199-18 57.602-21.602 9.6016-2.3984 20.398-1.1992 30-1.1992 9.6016 1.1992 20.398 2.3984 28.801 7.1992 9.6016 2.3984 18 8.3984 27.602 12 4.8008 1.1992 8.3984 4.8008 13.199 7.1992l1.1992 1.1992c-24 16.801-42 39.602-57.602 63.602-18 27.602-32.398 57.602-44.398 88.801l4.8008 1.1992c14.398-28.801 30-57.602 50.398-82.801 19.199-25.199 42-49.199 68.398-63.602 13.199-7.1992 27.602-10.801 42-10.801 14.398 0 28.801 4.8008 42 12 26.398 15.602 49.199 38.398 69.602 63.602l6-3.6016c-14.398-25.199-32.398-49.199-56.398-67.199l2.3984-1.1992c4.8008-2.3984 8.3984-6 13.199-7.1992 8.3984-4.8008 18-9.6016 27.602-12 9.6016-3.6016 19.199-4.8008 28.801-7.1992 9.6016 0 20.398-1.1992 30 1.1992 20.398 3.6016 39.602 10.801 57.602 21.602s33.602 24 48 38.398l2.3984-1.1992c-13.199-16.801-28.801-30-46.801-42s-37.199-20.398-58.801-25.199c-7.1992-2.3984-15.602-2.3984-22.801-3.6016 1.1992-1.1992 3.6016-1.1992 4.8008-2.3984 6-3.6016 12-9.6016 16.801-15.602 118.8 37.199 186 120 186 236.4-2.3984 180-158.4 328.8-350.4 328.8z" fill="#fff"/>
</svg>
